<svg width="512" height="512" viewBox="0 0 512 512" fill="none" xmlns="http://www.w3.org/2000/svg">
<path d="M115.682 73.33C160.026 39.266 215.246 22.4913 271.045 26.1337C280.11 26.7254 289.089 27.8529 297.941 29.4901C289.013 47.7608 284 68.2947 284 89.9999C284 166.215 345.785 228 422 228C443.729 228 464.284 222.975 482.57 214.028C484.219 222.917 485.354 231.933 485.948 241.036C489.591 296.835 472.816 352.055 438.752 396.399C404.688 440.744 355.659 471.187 300.807 482.053C245.955 492.918 189.024 483.465 140.627 455.455L50.8906 485.383C47.5077 486.511 43.877 486.675 40.4062 485.856C36.9356 485.037 33.7618 483.267 31.2402 480.746C28.7186 478.224 26.949 475.05 26.1299 471.579C25.3108 468.108 25.4744 464.478 26.6025 461.095L56.627 371.455C28.6169 323.058 19.1627 266.126 30.0283 211.274C40.894 156.422 71.3372 107.394 115.682 73.33Z" fill="#FF6900"/>
<path d="M370.31 324.391C358.725 344.458 342.061 361.121 321.995 372.706C301.928 384.292 279.165 390.391 255.995 390.391C232.824 390.391 210.061 384.292 189.995 372.706C169.928 361.121 153.265 344.458 141.679 324.391" stroke="#FEFCE8" stroke-width="48" stroke-linecap="round" stroke-linejoin="round"/>
<circle cx="422" cy="90" r="90" fill="#00A6F4"/>
</svg>
