<svg width="512" height="512" viewBox="0 0 512 512" fill="none" xmlns="http://www.w3.org/2000/svg">
<path d="M370.31 324.391C358.725 344.458 342.061 361.121 321.995 372.706C301.928 384.292 279.165 390.391 255.995 390.391C232.824 390.391 210.061 384.292 189.995 372.706C169.928 361.121 153.265 344.458 141.679 324.391" stroke="#FEFCE8" stroke-width="48" stroke-linecap="round" stroke-linejoin="round"/>
<path d="M115.682 73.3297C160.027 39.2657 215.246 22.491 271.045 26.1334C280.11 26.7251 289.089 27.8526 297.942 29.4899C289.013 47.7606 284 68.2943 284 89.9996C284 166.215 345.785 228 422 228C443.73 228 464.285 222.975 482.571 214.028C484.219 222.917 485.353 231.934 485.948 241.037C489.59 296.836 472.815 352.055 438.751 396.4C404.687 440.744 355.659 471.188 300.807 482.053C245.955 492.919 189.023 483.465 140.626 455.455L50.8909 485.383C47.508 486.512 43.8773 486.675 40.4066 485.856C36.9358 485.037 33.7612 483.267 31.2396 480.746C28.718 478.224 26.9492 475.049 26.1302 471.579C25.3112 468.108 25.4747 464.478 26.6028 461.095L56.6263 371.455C28.6165 323.058 19.1632 266.127 30.0286 211.275C40.8942 156.423 71.3373 107.394 115.682 73.3297Z" fill="#FF6900"/>
<circle cx="422" cy="90" r="90" fill="#00A6F4"/>
</svg>
