<?xml version="1.0" encoding="UTF-8"?>
<!-- Generated by Pixelmator Pro 3.7 -->
<svg width="256" height="256" viewBox="0 0 256 256" xmlns="http://www.w3.org/2000/svg">
    <path id="Path" fill="none" stroke="none" d="M 0 0 L 256 0 L 256 256 L 0 256 Z"/>
    <path id="path1" fill="#ef5806" stroke="none" opacity="0.2" d="M 79.93 211.110001 C 121.6427 235.251572 174.789322 224.723785 204.148788 186.503555 C 233.50827 148.283325 229.979034 94.219086 195.899979 60.140015 C 161.820923 26.060959 107.756676 22.531738 69.536446 51.891205 C 31.316214 81.250671 20.788424 134.397308 44.93 176.110001 L 44.93 176.110001 L 32.419998 213.460007 C 31.461241 216.33493 32.209312 219.504791 34.352257 221.647751 C 36.495201 223.790695 39.665073 224.538757 42.540001 223.580002 L 79.93 211.110001 Z"/>
    <path id="path2" fill="none" stroke="#ef5806" stroke-width="16" stroke-linecap="round" stroke-linejoin="round" d="M 79.93 211.110001 C 121.6427 235.251572 174.789322 224.723785 204.148788 186.503555 C 233.50827 148.283325 229.979034 94.219086 195.899979 60.140015 C 161.820923 26.060959 107.756676 22.531738 69.536446 51.891205 C 31.316214 81.250671 20.788424 134.397308 44.93 176.110001 L 44.93 176.110001 L 32.419998 213.460007 C 31.461241 216.33493 32.209312 219.504791 34.352257 221.647751 C 36.495201 223.790695 39.665073 224.538757 42.540001 223.580002 L 79.93 211.110001 Z"/>
    <path id="path3" fill="#ed230d" stroke="none" d="M 186.140625 128 C 186.140625 160.110153 160.110153 186.140625 128 186.140625 C 95.889809 186.140625 69.859375 160.110153 69.859375 128 C 69.859375 95.889847 95.889809 69.859375 128 69.859375 C 160.110153 69.859375 186.140625 95.889847 186.140625 128 Z"/>
</svg>
