<svg width="512" height="512" viewBox="0 0 512 512" fill="none" xmlns="http://www.w3.org/2000/svg">
<path d="M140.627 455.455C189.023 483.465 245.955 492.919 300.807 482.053C355.659 471.187 404.688 440.744 438.752 396.4C472.816 352.055 489.59 296.835 485.948 241.036C482.305 185.237 458.494 132.667 418.955 93.1271C379.415 53.5872 326.844 29.7763 271.045 26.1339C215.246 22.4914 160.027 39.2659 115.682 73.33C71.3374 107.394 40.8943 156.423 30.0287 211.275C19.1631 266.127 28.6166 323.058 56.6266 371.455L26.6026 461.095C25.4744 464.478 25.3107 468.108 26.1298 471.579C26.9489 475.05 28.7184 478.224 31.24 480.746C33.7617 483.267 36.9357 485.037 40.4065 485.856C43.8773 486.675 47.5076 486.511 50.8906 485.383L140.627 455.455Z" fill="#FF6900"/>
<path d="M370.31 324.391C358.725 344.458 342.061 361.121 321.995 372.706C301.928 384.292 279.165 390.391 255.995 390.391C232.824 390.391 210.061 384.292 189.995 372.706C169.928 361.121 153.265 344.458 141.679 324.391" stroke="#FEFCE8" stroke-width="48" stroke-linecap="round" stroke-linejoin="round"/>
</svg>
