<svg width="512" height="512" viewBox="0 0 512 512" fill="none" xmlns="http://www.w3.org/2000/svg">
<path fill-rule="evenodd" clip-rule="evenodd" d="M115.682 73.3298C160.027 39.2657 215.246 22.491 271.045 26.1335C326.844 29.7759 379.415 53.5877 418.954 93.1276C458.494 132.667 482.305 185.238 485.948 241.037C489.59 296.836 472.815 352.056 438.751 396.4C404.687 440.744 355.659 471.188 300.807 482.053C245.955 492.919 189.023 483.465 140.626 455.455L50.891 485.383C47.5081 486.512 43.8774 486.675 40.4066 485.856C36.9358 485.037 33.7613 483.267 31.2396 480.746C28.7181 478.224 26.9493 475.049 26.1303 471.579C25.3113 468.108 25.4748 464.478 26.6029 461.095L56.6263 371.455C28.6166 323.058 19.1632 266.127 30.0287 211.275C40.8943 156.423 71.3374 107.394 115.682 73.3298ZM382.31 303.607C370.831 296.98 356.152 300.912 349.525 312.391C340.046 328.809 326.412 342.443 309.995 351.922C293.577 361.4 274.952 366.391 255.995 366.391C237.037 366.391 218.413 361.4 201.995 351.922C185.577 342.443 171.942 328.809 162.463 312.391C155.836 300.912 141.158 296.98 129.679 303.607C118.2 310.235 114.268 324.912 120.895 336.391C134.587 360.106 154.28 379.799 177.995 393.491C201.709 407.183 228.611 414.391 255.995 414.391C283.378 414.391 310.28 407.183 333.995 393.491C357.709 379.799 377.402 360.106 391.094 336.391C397.721 324.912 393.789 310.235 382.31 303.607Z" fill="black" fill-opacity="0.08"/>
</svg>
