<svg width="512" height="512" viewBox="0 0 512 512" fill="none" xmlns="http://www.w3.org/2000/svg">
<path d="M140.627 455.455C189.023 483.465 245.955 492.919 300.807 482.053C355.659 471.187 404.688 440.744 438.752 396.4C472.816 352.055 489.59 296.835 485.948 241.036C482.305 185.237 458.494 132.667 418.955 93.1271C379.415 53.5872 326.844 29.7763 271.045 26.1339C215.246 22.4914 160.027 39.2659 115.682 73.33C71.3374 107.394 40.8943 156.423 30.0287 211.275C19.1631 266.127 28.6166 323.058 56.6266 371.455L26.6026 461.095C25.4744 464.478 25.3107 468.108 26.1298 471.579C26.9489 475.05 28.7184 478.224 31.24 480.746C33.7616 483.267 36.9357 485.037 40.4065 485.856C43.8773 486.675 47.5076 486.511 50.8906 485.383L140.627 455.455Z" stroke="black" stroke-opacity="0.1" stroke-width="8" stroke-linecap="round" stroke-linejoin="round"/>
<path d="M349.525 312.391C356.152 300.912 370.831 296.979 382.31 303.607C393.789 310.234 397.722 324.912 391.094 336.391C377.402 360.106 357.709 379.799 333.995 393.491C310.28 407.183 283.378 414.391 255.995 414.391C228.611 414.391 201.71 407.183 177.995 393.491C154.28 379.799 134.587 360.106 120.895 336.391C114.268 324.912 118.2 310.234 129.679 303.607C141.158 296.98 155.836 300.912 162.463 312.391C171.942 328.809 185.577 342.442 201.995 351.921C218.413 361.4 237.037 366.391 255.995 366.391C274.953 366.391 293.577 361.4 309.995 351.921C326.413 342.442 340.046 328.809 349.525 312.391Z" stroke="black" stroke-opacity="0.1" stroke-width="8" stroke-linecap="round" stroke-linejoin="round"/>
</svg>
